<svg width="24" height="24" viewBox="0 0 24 24" fill="none" xmlns="http://www.w3.org/2000/svg">
<path d="M8.66667 12.2C8.66667 12.9514 8.36816 13.6721 7.8368 14.2035C7.30545 14.7348 6.58478 15.0333 5.83333 15.0333C5.08189 15.0333 4.36122 14.7348 3.82986 14.2035C3.29851 13.6721 3 12.9514 3 12.2C3 11.4486 3.29851 10.7279 3.82986 10.1965C4.36122 9.66518 5.08189 9.36667 5.83333 9.36667C6.58478 9.36667 7.30545 9.66518 7.8368 10.1965C8.36816 10.7279 8.66667 11.4486 8.66667 12.2Z" stroke="#7E7E7E" stroke-width="1.5"/>
<path d="M14.3333 5.96667L8.66666 9.93333M14.3333 18.4333L8.66666 14.4667" stroke="#7E7E7E" stroke-width="1.5" stroke-linecap="round"/>
<path d="M20 19.5667C20 20.3181 19.7015 21.0388 19.1701 21.5701C18.6388 22.1015 17.9181 22.4 17.1667 22.4C16.4152 22.4 15.6946 22.1015 15.1632 21.5701C14.6318 21.0388 14.3333 20.3181 14.3333 19.5667C14.3333 18.8152 14.6318 18.0946 15.1632 17.5632C15.6946 17.0318 16.4152 16.7333 17.1667 16.7333C17.9181 16.7333 18.6388 17.0318 19.1701 17.5632C19.7015 18.0946 20 18.8152 20 19.5667ZM20 4.83333C20 5.58478 19.7015 6.30545 19.1701 6.8368C18.6388 7.36816 17.9181 7.66667 17.1667 7.66667C16.4152 7.66667 15.6946 7.36816 15.1632 6.8368C14.6318 6.30545 14.3333 5.58478 14.3333 4.83333C14.3333 4.08189 14.6318 3.36122 15.1632 2.82986C15.6946 2.29851 16.4152 2 17.1667 2C17.9181 2 18.6388 2.29851 19.1701 2.82986C19.7015 3.36122 20 4.08189 20 4.83333Z" stroke="#7E7E7E" stroke-width="1.5"/>
</svg>
