<svg width="24" height="24" viewBox="0 0 24 24" fill="none" xmlns="http://www.w3.org/2000/svg">
<g clip-path="url(#clip0_225_321)">
<path d="M12.981 3.00765L11.9972 4.05342L11.0086 3.0051C9.79908 1.72274 8.15874 1.00239 6.44839 1.00251C4.73804 1.00263 3.09779 1.72321 1.88847 3.00574C0.679152 4.28826 -0.000173522 6.02768 -6.10212e-05 7.84133C5.14795e-05 9.65497 0.679592 11.3943 1.88907 12.6767L11.3613 22.721C11.53 22.8997 11.7587 23 11.9972 23C12.2356 23 12.4643 22.8997 12.633 22.721L22.1137 12.6741C23.3217 11.3915 24.0002 9.65275 23.9999 7.83998C23.9997 6.0272 23.3208 4.28867 22.1125 3.00637C21.513 2.37031 20.8013 1.86573 20.0179 1.52147C19.2344 1.17721 18.3947 1.00002 17.5467 1.00002C16.6987 1.00002 15.859 1.17721 15.0756 1.52147C14.2922 1.86573 13.5804 2.37158 12.981 3.00765ZM20.8371 11.3268L11.9972 20.6981L3.16083 11.3281C2.72535 10.8712 2.37932 10.3275 2.14262 9.72836C1.90593 9.12919 1.78324 8.48633 1.78161 7.83672C1.77998 7.18711 1.89944 6.54356 2.13313 5.94306C2.36681 5.34257 2.71011 4.79697 3.1433 4.33762C3.57648 3.87828 4.091 3.51424 4.65729 3.26644C5.22359 3.01865 5.83048 2.89197 6.44309 2.8937C7.0557 2.89543 7.66195 3.02552 8.22699 3.27651C8.79203 3.5275 9.30472 3.89443 9.73559 4.35622L11.3649 6.08264C11.4497 6.17264 11.5505 6.24375 11.6616 6.2918C11.7727 6.33985 11.8917 6.36387 12.0116 6.36245C12.1315 6.36103 12.25 6.33419 12.36 6.28352C12.47 6.23284 12.5694 6.15936 12.6522 6.06738L14.2527 4.35622C15.135 3.48547 16.3013 3.01148 17.5063 3.03396C18.7113 3.05644 19.8612 3.57365 20.714 4.47677C21.5667 5.3799 22.056 6.59854 22.0787 7.87633C22.1014 9.15413 21.6559 10.3915 20.8359 11.3281" fill="#7E7E7E"/>
</g>
<defs>
<clipPath id="clip0_225_321">
<rect width="24" height="24" fill="white"/>
</clipPath>
</defs>
</svg>
