<svg width="14" height="14" viewBox="0 0 14 14" fill="none" xmlns="http://www.w3.org/2000/svg">
<path d="M5 11.7778L1.52667 12.8393C1.46649 12.8577 1.40239 12.8627 1.33967 12.854C1.27695 12.8452 1.21741 12.8229 1.16595 12.7888C1.1145 12.7548 1.07262 12.71 1.04376 12.6582C1.01491 12.6064 0.999908 12.5491 1 12.4909V3.48683C1.00002 3.40992 1.02642 3.33496 1.07547 3.27255C1.12453 3.21015 1.19374 3.16347 1.27333 3.13911L5 2M5 11.7778L9 13M5 11.7778V2M5 2L9 3.22222M9 13L12.7267 11.8615C12.8064 11.8371 12.8757 11.7903 12.9247 11.7278C12.9738 11.6653 13.0001 11.5902 13 11.5132V2.50844C13 2.45034 12.9849 2.39307 12.956 2.34135C12.9271 2.28963 12.8852 2.24495 12.8338 2.21099C12.7823 2.17703 12.7228 2.15476 12.6602 2.14602C12.5975 2.13728 12.5335 2.14232 12.4733 2.16072L9 3.22222M9 13V3.22222" stroke="#A6A6A6" stroke-linecap="round" stroke-linejoin="round"/>
</svg>
