<?xml version="1.0" standalone="no"?>
<!DOCTYPE svg PUBLIC "-//W3C//DTD SVG 20010904//EN"
 "http://www.w3.org/TR/2001/REC-SVG-20010904/DTD/svg10.dtd">
<svg version="1.0" xmlns="http://www.w3.org/2000/svg"
 width="348.000000pt" height="348.000000pt" viewBox="0 0 348.000000 348.000000"
 preserveAspectRatio="xMidYMid meet">

<g transform="translate(0.000000,348.000000) scale(0.100000,-0.100000)"
fill="#000000" stroke="none">
<path d="M1635 2700 c-296 -41 -539 -207 -679 -461 -208 -379 -106 -871 236
-1132 88 -68 207 -128 308 -157 107 -31 298 -38 411 -15 287 58 521 243 644
508 82 178 101 405 50 602 -21 79 -85 214 -139 289 -87 122 -230 237 -372 299
-127 56 -330 85 -459 67z"/>
</g>
</svg>
