<?xml version="1.0" standalone="no"?>
<!DOCTYPE svg PUBLIC "-//W3C//DTD SVG 20010904//EN"
 "http://www.w3.org/TR/2001/REC-SVG-20010904/DTD/svg10.dtd">
<svg version="1.0" xmlns="http://www.w3.org/2000/svg"
 width="626.000000pt" height="626.000000pt" viewBox="0 0 626.000000 626.000000"
 preserveAspectRatio="xMidYMid meet">

<g transform="translate(0.000000,626.000000) scale(0.100000,-0.100000)"
fill="#FF4B4B" stroke="none">
<path d="M2965 5704 c-16 -2 -66 -9 -110 -15 -185 -24 -393 -92 -583 -188
-376 -192 -669 -492 -851 -872 -132 -274 -180 -503 -181 -845 0 -378 76 -734
245 -1144 108 -262 177 -389 359 -665 565 -856 1078 -1425 1286 -1425 175 0
553 386 1032 1056 170 237 370 540 437 663 183 330 340 778 397 1134 22 137
30 507 14 635 -56 458 -274 879 -610 1180 -272 243 -607 406 -965 468 -78 14
-411 27 -470 18z m313 -1230 c302 -62 526 -321 548 -632 15 -207 -64 -403
-225 -555 -127 -119 -288 -181 -471 -181 -188 0 -344 61 -477 187 -156 148
-234 344 -220 548 31 426 423 720 845 633z"/>
</g>
</svg>
